.
 
http://www.scenetime.com    -  Hottest private tracker on the net. !!!

Sign up will close shortly !!  Join now 

        Seed back for speed


...................................NFO:.................................................[img]http://img26.imageshack.us/img26/184/thorbluray.jpg[/img]


[color=blue][size=5][b]Thor.2011.BDRip.XVID.AC3.HQ.Hive-CM8[/b][/size][/color]


[b]Thx Hive

CM8 Doing It Right The First Time :D


Source: Bluray

Encode: 
there is a 15min block in the middle of the movie on that planet which has intense scenes
with darkness,snow,fog and fast action which looked pixelated at bitrate 1800, and since
i like quality i encoded that specific part with bitrate 4000 to get you best quality on
that parts too. the rest of the movie has bitrate 1800. version is 200mb bigger now but
better quality. enjoy


Video: 720x304 @bitrate 1800 (4000) 2pass
Audio: English DTS to AC3 5.1 @448
Sample: yes included
Subs: yes english in srt /subs[/b]


[url]http://www.imdb.com/title/tt0800369/[/url]


General
Complete name                    : Thor.2011.BDRip.XVID.AC3.HQ.Hive-CM8.avi
Format                           : AVI
Format/Info                      : Audio Video Interleave
Format profile                   : OpenDML
Format settings                  : rec
File size                        : 2.21 GiB
Duration                         : 1h 54mn
Overall bit rate                 : 2 760 Kbps
Writing application              : AVI-Mux GUI 1.17.7, Aug  8 2006  20:59:17

Video
ID                               : 0
Format                           : MPEG-4 Visual
Format profile                   : Advanced Simple@L5
Format settings, BVOP            : 1
Format settings, QPel            : Yes
Format settings, GMC             : No warppoints
Format settings, Matrix          : Default (H.263)
Muxing mode                      : Packed bitstream
Codec ID                         : XVID
Codec ID/Hint                    : XviD
Duration                         : 1h 54mn
Bit rate                         : 2 306 Kbps
Width                            : 720 pixels
Height                           : 304 pixels
Display aspect ratio             : 2.35:1
Frame rate                       : 23.976 fps
Color space                      : YUV
Chroma subsampling               : 4:2:0
Bit depth                        : 8 bits
Scan type                        : Progressive
Compression mode                 : Lossy
Bits/(Pixel*Frame)               : 0.439
Stream size                      : 1.85 GiB (84%)
Writing library                  : XviD 1.2.1 (UTC 2008-12-04)

Audio
ID                               : 1
Format                           : AC-3
Format/Info                      : Audio Coding 3
Mode extension                   : CM (complete main)
Codec ID                         : 2000
Duration                         : 1h 54mn
Bit rate mode                    : Constant
Bit rate                         : 448 Kbps
Channel(s)                       : 6 channels
Channel positions                : Front: L C R, Side: L R, LFE
Sampling rate                    : 48.0 KHz
Bit depth                        : 16 bits
Compression mode                 : Lossy
Stream size                      : 368 MiB (16%)
Alignment                        : Aligned on interleaves
Interleave, duration             : 64 ms (1.53 video frames)
Interleave, preload duration     : 192 ms


Plot:
The powerful but arrogant warrior Thor is cast out of the fantastic realm of
Asgard and sent to live amongst humans on Earth, where he soon becomes one of
their finest defenders.


Cast:
Chris Hemsworth   ...   Thor
Natalie Portman   ...   Jane Foster
Tom Hiddleston    ...   Loki
Anthony Hopkins   ...   Odin
Stellan Skarsgard ...   Erik Selvig
Kat Dennings      ...   Darcy Lewis
Clark Gregg       ...   Agent Coulson


[img]http://img855.imageshack.us/img855/2667/85513221.png[/img]
[img]http://img594.imageshack.us/img594/2476/thth.png[/img]
[img]http://img200.imageshack.us/img200/7137/ththth.png[/img]
[img]http://img600.imageshack.us/img600/7767/thththth.png[/img]
[img]http://img840.imageshack.us/img840/7586/ththththth.png[/img]
[img]http://img233.imageshack.us/img233/2168/thththtthhth.png[/img]
[img]http://img37.imageshack.us/img37/8493/thththtththhth.png[/img]
[img]http://img29.imageshack.us/img29/5895/thththtthtthhhth.png[/img]
[img]http://img94.imageshack.us/img94/7061/thththtthtththhhth.png[/img]
[img]http://img40.imageshack.us/img40/2566/thththtthttthhthhhth.png[/img]



Greetz

ViSiON,SiC,SANTi,3LT0N,YanKeeS,MAGNET,THC,T0XiC,LKRG,FANTASIA-PLAY,FANTASIA-M,BHRG,IMAGiNE,
D2U,WBZ,FLAWL3SS,NOVA,Vik,Rapeseed,SAFC,goldadvance,MEMORY100,scumbag,KaN1vE,Unevano,Pinnz,
Mr Hive,Wayne,cedrict wink,and all P2P groups
Great Work Guys :D

FYS

LOOKING FOR ANYTHING YOU WANT TO LOOK AND SOUND BETTER

CM8@hushmail.com